<svg width="50" height="50" viewBox="0 0 50 50" fill="none" xmlns="http://www.w3.org/2000/svg">
<path d="M11.3336 19.838C11.3387 19.8599 11.3446 19.8816 11.3513 19.9031C11.9203 21.7512 13.2329 23.8959 14.8612 26.0221C16.5038 28.1669 18.5251 30.3662 20.589 32.3306C22.6509 34.2931 24.7783 36.0429 26.6395 37.2773C27.5685 37.8935 28.4545 38.3969 29.2492 38.732C29.9883 39.0437 30.7757 39.2658 31.4869 39.184C32.3212 39.1501 32.9172 38.5579 33.2895 38.1162C33.6314 37.7104 33.9791 37.1852 34.3131 36.6807C34.3836 36.5741 34.4536 36.4684 34.5228 36.365C35.3507 35.1268 36.1993 34.0096 37.3318 33.4942C37.4047 33.5028 37.5695 33.5333 37.8585 33.6475C38.2507 33.8026 38.7399 34.0572 39.3161 34.3972C40.1949 34.9157 41.1876 35.5787 42.2388 36.2808C42.5713 36.5029 42.9097 36.7289 43.2521 36.9554C43.6234 37.201 43.9761 37.4329 44.3109 37.653C45.6082 38.5058 46.6367 39.1818 47.4326 39.796C48.3472 40.5018 48.8002 41.0153 48.9961 41.4559C48.9523 42.4333 48.5448 43.4754 47.8638 44.5531C47.1461 45.6888 46.1717 46.7899 45.1624 47.7986C44.7425 48.2182 43.7413 48.7187 42.073 48.9158C40.4405 49.1086 38.2758 48.9955 35.6665 48.3125C30.4526 46.9478 23.5027 43.3163 15.5956 35.4141C-0.297053 19.5314 0.0474183 9.64486 1.86113 5.56655C2.03834 5.16809 2.40771 4.69881 2.97534 4.19415C3.53351 3.69791 4.2331 3.21176 4.99878 2.76795C6.4548 1.924 8.0539 1.28777 9.20311 1.02401C9.25206 1.05647 9.33876 1.12334 9.466 1.25745C9.73619 1.54222 10.0497 1.9813 10.4224 2.5692C10.6652 2.95229 10.9346 3.40308 11.2245 3.88811C11.7695 4.79987 12.3867 5.83259 13.0355 6.76389L13.1157 6.87896C14.1202 8.32063 15.0999 9.72683 15.837 10.9362C16.2151 11.5565 16.5145 12.1013 16.7166 12.5545C16.8966 12.958 16.9648 13.2145 16.9821 13.3513C16.9709 13.3696 16.9537 13.3951 16.9282 13.4283C16.8243 13.5638 16.6475 13.7411 16.383 13.9635C15.986 14.2974 15.499 14.6467 14.957 15.0354C14.7659 15.1724 14.568 15.3144 14.3648 15.4623C13.6248 16.0009 12.8205 16.6151 12.2347 17.2632C11.6828 17.8739 11.0843 18.7791 11.3336 19.838Z" stroke="#FCF1E7" stroke-width="2" stroke-linecap="round" stroke-linejoin="round"/>
<path d="M28.3137 17.5447C31.4117 17.5447 33.9934 19.6088 33.9934 23.2209" stroke="#FCF1E7" stroke-width="2" stroke-linecap="round" stroke-linejoin="round"/>
<path d="M29.3463 11.8685C34.9791 11.8685 39.6732 15.6213 39.6732 22.1889" stroke="#FCF1E7" stroke-width="2" stroke-linecap="round" stroke-linejoin="round"/>
<path d="M30.379 6.70826C38.265 6.70826 44.8366 11.9623 44.8366 21.1568" stroke="#FCF1E7" stroke-width="2" stroke-linecap="round" stroke-linejoin="round"/>
</svg>
